<svg width="74" height="70" viewBox="0 0 74 70" fill="none" xmlns="http://www.w3.org/2000/svg">
<path d="M30.5216 47.9527V59.2735C30.4742 63.786 29.2417 64.926 24.5489 64.926H9.63293C4.86107 64.926 3.66016 63.7385 3.66016 59.0202V47.9527C3.66016 43.6777 4.65561 42.3002 8.40042 42.0785C8.77964 42.0627 9.19051 42.0469 9.63293 42.0469H24.5489C29.3207 42.0469 30.5216 43.2344 30.5216 47.9527Z" fill="#0460CC"/>
<path d="M35.2619 42.3316V53.3991C35.2619 57.6741 34.2664 59.0516 30.5216 59.2733V47.9524C30.5216 43.2341 29.3207 42.0466 24.5488 42.0466H9.6329C9.19048 42.0466 8.77961 42.0624 8.40039 42.0783C8.44779 37.5658 9.68031 36.4258 14.3732 36.4258H29.2891C34.061 36.4258 35.2619 37.6133 35.2619 42.3316Z" fill="#1C3D5A"/>
<path d="M11.4975 61.0625H8.77967C8.13183 61.0625 7.5946 60.5242 7.5946 59.875C7.5946 59.2258 8.13183 58.6875 8.77967 58.6875H11.4975C12.1453 58.6875 12.6825 59.2258 12.6825 59.875C12.6825 60.5242 12.1611 61.0625 11.4975 61.0625Z" fill="#1C3D5A"/>
<path d="M20.33 61.0625H14.8945C14.2467 61.0625 13.7095 60.5242 13.7095 59.875C13.7095 59.2258 14.2467 58.6875 14.8945 58.6875H20.33C20.9779 58.6875 21.5151 59.2258 21.5151 59.875C21.5151 60.5242 20.9937 61.0625 20.33 61.0625Z" fill="#1C3D5A"/>
<path d="M30.5216 50.4531H3.66016V52.8281H30.5216V50.4531Z" fill="#1C3D5A"/>
<path d="M70.3398 30.4076V35.1576H38.738V30.4076C38.738 29.5367 39.4491 28.8242 40.3181 28.8242H68.7597C69.6287 28.8242 70.3398 29.5367 70.3398 30.4076Z" fill="#0460CC" stroke="#0460CC" stroke-width="1.5" stroke-miterlimit="10" stroke-linecap="round" stroke-linejoin="round"/>
<path opacity="0.6" d="M48.2185 17.7422H41.8982V28.8255H48.2185V17.7422Z" fill="#0460CC"/>
<path opacity="0.4" d="M54.539 17.7422H48.2186V28.8255H54.539V17.7422Z" fill="#0460CC"/>
<path opacity="0.6" d="M60.8593 17.7422H54.5389V28.8255H60.8593V17.7422Z" fill="#0460CC"/>
<path opacity="0.4" d="M67.1796 17.7422H60.8593V28.8255H67.1796V17.7422Z" fill="#0460CC"/>
<path d="M71.9199 36.3438H37.158C36.5101 36.3438 35.9729 35.8054 35.9729 35.1562C35.9729 34.5071 36.5101 33.9688 37.158 33.9688H71.9199C72.5677 33.9688 73.1049 34.5071 73.1049 35.1562C73.1049 35.8054 72.5677 36.3438 71.9199 36.3438Z" fill="#0460CC"/>
<path d="M69.3443 9.42777L55.1235 3.72781C54.8075 3.60115 54.2703 3.60115 53.9543 3.72781L39.7335 9.42777C39.1805 9.64944 38.738 10.2986 38.738 10.9003V16.1569C38.738 17.0278 39.4491 17.7403 40.3181 17.7403H68.7597C69.6287 17.7403 70.3398 17.0278 70.3398 16.1569V10.9003C70.3398 10.2986 69.8973 9.64944 69.3443 9.42777ZM54.5389 13.7819C53.2274 13.7819 52.1688 12.7211 52.1688 11.4069C52.1688 10.0928 53.2274 9.03194 54.5389 9.03194C55.8504 9.03194 56.909 10.0928 56.909 11.4069C56.909 12.7211 55.8504 13.7819 54.5389 13.7819Z" fill="#0460CC"/>
<path d="M38.4221 52.6227C37.9251 52.6227 37.5221 53.0256 37.5221 53.5227C37.5221 54.0197 37.9251 54.4227 38.4221 54.4227V52.6227ZM55.1754 39.5863C54.8239 39.2348 54.2541 39.2348 53.9026 39.5863L48.175 45.3138C47.8236 45.6653 47.8236 46.2351 48.175 46.5866C48.5265 46.9381 49.0964 46.9381 49.4478 46.5866L54.539 41.4954L59.6302 46.5866C59.9816 46.9381 60.5515 46.9381 60.903 46.5866C61.2544 46.2351 61.2544 45.6653 60.903 45.3138L55.1754 39.5863ZM38.4221 54.4227H51.539V52.6227H38.4221V54.4227ZM55.439 50.5227V40.2227H53.639V50.5227H55.439ZM51.539 54.4227C53.6929 54.4227 55.439 52.6766 55.439 50.5227H53.639C53.639 51.6825 52.6988 52.6227 51.539 52.6227V54.4227Z" fill="black"/>
<path d="M35.5779 19.2758C36.0749 19.2758 36.4779 18.8728 36.4779 18.3758C36.4779 17.8787 36.0749 17.4758 35.5779 17.4758V19.2758ZM18.8246 32.3122C19.1761 32.6636 19.7459 32.6636 20.0974 32.3122L25.825 26.5846C26.1764 26.2331 26.1764 25.6633 25.825 25.3118C25.4735 24.9603 24.9036 24.9603 24.5522 25.3118L19.461 30.403L14.3698 25.3118C14.0184 24.9603 13.4485 24.9603 13.097 25.3118C12.7456 25.6633 12.7456 26.2331 13.097 26.5846L18.8246 32.3122ZM35.5779 17.4758H22.461V19.2758H35.5779V17.4758ZM18.561 21.3758V31.6758H20.361V21.3758H18.561ZM22.461 17.4758C20.3071 17.4758 18.561 19.2219 18.561 21.3758H20.361C20.361 20.216 21.3012 19.2758 22.461 19.2758V17.4758Z" fill="black"/>
</svg>
